<?xml version="1.0" encoding="utf-8"?>
<!-- Generator: Adobe Illustrator 24.0.2, SVG Export Plug-In . SVG Version: 6.00 Build 0)  -->
<svg version="1.1" id="Layer_1" xmlns="http://www.w3.org/2000/svg" xmlns:xlink="http://www.w3.org/1999/xlink" x="0px" y="0px"
	 viewBox="0 0 56.7 56.7" style="enable-background:new 0 0 56.7 56.7;" xml:space="preserve">
<style type="text/css">
	.st0{fill:#DD4747;}
</style>
<g>
	<path class="st0" d="M28.9,14.4c-7.8,0-14.3,6.4-14.3,14.3s6.4,14.3,14.3,14.3s14.3-6.5,14.3-14.3S36.7,14.4,28.9,14.4z M28.9,38
		c-5,0-9.2-4.1-9.2-9.2s4.1-9.2,9.2-9.2s9.2,4.1,9.2,9.2S33.9,38,28.9,38z"/>
	<circle class="st0" cx="43.8" cy="14.1" r="3.3"/>
	<path class="st0" d="M52.2,5.7c-2.9-3-7.1-4.6-11.8-4.6H17.4C7.6,1.1,1.1,7.6,1.1,17.4v23c0,4.8,1.6,9,4.7,12
		c3,2.9,7.1,4.4,11.7,4.4h22.9c4.8,0,8.9-1.6,11.8-4.4c3-2.9,4.6-7.1,4.6-11.9V17.4C56.7,12.6,55.1,8.6,52.2,5.7z M51.8,40.4
		c0,3.5-1.2,6.3-3.3,8.2s-4.8,2.9-8.2,2.9H17.5c-3.4,0-6.2-1-8.2-2.9c-2-2-3-4.8-3-8.3v-23c0-3.4,1-6.2,3-8.2
		c1.9-1.9,4.8-2.9,8.2-2.9h23.1c3.4,0,6.2,1,8.2,3c1.9,2,3,4.8,3,8.1V40.4L51.8,40.4z"/>
</g>
</svg>
