<?xml version="1.0" encoding="utf-8"?>
<!-- Generator: Adobe Illustrator 24.0.2, SVG Export Plug-In . SVG Version: 6.00 Build 0)  -->
<svg version="1.1" id="Camada_1" xmlns="http://www.w3.org/2000/svg" xmlns:xlink="http://www.w3.org/1999/xlink" x="0px" y="0px"
	 viewBox="0 0 20 20" style="enable-background:new 0 0 20 20;" xml:space="preserve">
<style type="text/css">
	.st0{fill:#DD4747;}
</style>
<title>linkedin@1x</title>
<desc>Created with Sketch.</desc>
<g id="Hiro">
	<g id="Costomark-Agency" transform="translate(-677.000000, -4094.000000)">
		<g id="Stacked-Group-5" transform="translate(641.000000, 4094.000000)">
			<g id="linkedin" transform="translate(36.000000, 0.000000)">
				<path id="Path" class="st0" d="M20,20L20,20L20,20l0-7.3c0-3.6-0.8-6.4-5-6.4c-2,0-3.4,1.1-3.9,2.2h-0.1V6.6h-4V20h4.1v-6.6
					c0-1.7,0.3-3.4,2.5-3.4c2.1,0,2.2,2,2.2,3.5V20H20z"/>
				<polygon id="Path_1_" class="st0" points="0.3,6.6 4.5,6.6 4.5,20 0.3,20 				"/>
				<path id="Path_2_" class="st0" d="M2.4,0C1.1,0,0,1.1,0,2.4s1.1,2.4,2.4,2.4s2.4-1.1,2.4-2.4C4.8,1.1,3.7,0,2.4,0z"/>
			</g>
		</g>
	</g>
</g>
</svg>
