<?xml version="1.0" encoding="utf-8"?>
<!-- Generator: Adobe Illustrator 24.0.2, SVG Export Plug-In . SVG Version: 6.00 Build 0)  -->
<svg version="1.1" id="Camada_1" xmlns="http://www.w3.org/2000/svg" xmlns:xlink="http://www.w3.org/1999/xlink" x="0px" y="0px"
	 viewBox="0 0 192.9 83.9" style="enable-background:new 0 0 192.9 83.9;" xml:space="preserve">
<style type="text/css">
	.st0{fill:#FFFFFF;}
</style>
<g>
	<g>
		<g>
			<path class="st0" d="M13.4,60.1c0,1.9-1.3,3.5-3.7,3.5h-4V59c0,0,1.8-2.4,4-2.4C12.1,56.6,13.4,58.2,13.4,60.1z M9.1,51.4
				c1.8,0,2.6,1.1,2.6,2.5c0,2.6-3.9,1.8-6,4.9v-7.4C5.6,51.4,9.1,51.4,9.1,51.4z M10.8,56.5c1.4-0.4,2.4-1.4,2.4-2.6
				c0-1.5-1.6-2.7-3.5-2.7H4v12.5h6.3c2.6,0,4.7-1.6,4.7-3.6C15,58.2,13.1,56.7,10.8,56.5z"/>
		</g>
		<g>
			<path class="st0" d="M20.2,58.3v-7h3c2.5,0,3.7,1.5,3.7,3.5c0,1.9-1.3,3.5-3.7,3.5L20.2,58.3L20.2,58.3z M30.6,63.5
				c-1.1,0-2.1-1.1-3.1-3c-0.4-0.8-1.3-1.8-3.2-2.1c2.3-0.2,4.2-1.7,4.2-3.6c0-2-2.1-3.6-4.7-3.6h-5.2v12.5h1.6v-5.3h1.1
				c3.8,0,4.4,1.7,4.8,2.2c0.6,1.1,2.2,3.1,4.2,3.1h0.5v-0.2L30.6,63.5L30.6,63.5z"/>
		</g>
		<g>
			<path class="st0" d="M34.8,51.2v9.7c0,2.1,2.7,2.7,4,2.7c2.3,0,4.4-2,4.4-3.6v-8.9h0.2V60c0,2.2-2.3,4-5.1,4
				c-2.8,0-5.1-1.8-5.1-4v-8.8C33.2,51.2,34.8,51.2,34.8,51.2z"/>
		</g>
		<g>
			<polygon class="st0" points="58.2,51.2 58.2,62.4 48.4,51.2 47.7,51.2 47.7,63.7 47.9,63.7 47.9,52.7 57.6,63.7 58.4,63.7 
				58.4,51.2 			"/>
		</g>
		<g>
			<path class="st0" d="M63.5,60l3.4-7.6l3.4,7.6H63.5z M73.5,63.7L68,51.2h-0.8l-5.5,12.5h0.2l1.6-3.6l0,0h6.9l1.6,3.6H73.5z"/>
		</g>
		<g>
			<path class="st0" d="M92.1,51.2h-4.2v12.5h4.2c4.7,0,7-3.1,7-6.2C99.1,54.3,96.8,51.2,92.1,51.2z M91.9,51.4
				c4.2,0,5.6,3.7,5.6,6.3c0,2.5-1.3,5.9-5.3,5.9h-2.7V51.4L91.9,51.4z"/>
		</g>
		<g>
			<path class="st0" d="M102.7,60l3.4-7.6l3.4,7.6H102.7z M112.7,63.7l-5.5-12.5h-0.8l-5.5,12.5h0.2l1.6-3.6l0,0h6.9l1.6,3.6H112.7z
				"/>
		</g>
		<g>
			<path class="st0" d="M133.7,51c-4.7,0-7,3.2-7,6.5c0,3.3,2.3,6.5,7,6.5c1.6,0,3-0.6,4.1-1.5l1.4,1.3h0.2v-6.9h-1.6v5.3
				c-1.1,0.9-2.7,1.5-4,1.5c-4.2,0-5.6-3.8-5.6-6.4c0-2.5,1.3-5.9,5.3-5.9c2.1,0,4.1,1.3,4.6,3.1h1.1C138.3,52.3,136.4,51,133.7,51z
				"/>
		</g>
		<g>
			<path class="st0" d="M144.3,60l3.4-7.6l3.4,7.6H144.3z M154.4,63.7l-5.5-12.5h-0.8l-5.6,12.5h0.2l1.6-3.6l0,0h6.9l1.6,3.6H154.4z
				"/>
		</g>
		<g>
			<path class="st0" d="M170.7,51.2h-0.9c-0.1,2.3-4.4,5.9-4.2,11.3h0.1l-5-11.2h-1.1l-2.5,12.5h0.2l2.3-11.3l5.1,11.3h1.5
				c-0.2-0.7-0.4-1.4-0.4-2.1c0-3.6,3-7.6,3.9-9l-0.3,0.2l3.2,11h1.6L170.7,51.2z"/>
		</g>
		<g>
			<path class="st0" d="M178.9,60l3.4-7.6l3.4,7.6H178.9z M188.9,63.7l-5.6-12.5h-0.8L177,63.7h0.2l1.6-3.6l0,0h6.9l1.6,3.6H188.9z"
				/>
		</g>
	</g>
</g>
<g>
	<g>
		<path class="st0" d="M24.7,76.7l0.5,0.4c-0.6,0.5-1.3,0.8-2.1,0.8s-1.5-0.2-2-0.7s-0.8-1.1-0.8-1.8c0-0.7,0.3-1.3,0.8-1.8
			c0.6-0.5,1.2-0.7,2-0.7c0.7,0,1.4,0.3,2.1,0.8l-0.5,0.4c-0.5-0.4-1-0.6-1.5-0.6c-0.6,0-1.1,0.2-1.5,0.6c-0.4,0.4-0.6,0.8-0.6,1.3
			c0,0.5,0.2,1,0.6,1.3c0.4,0.4,0.9,0.6,1.5,0.6C23.7,77.3,24.2,77.1,24.7,76.7z"/>
		<path class="st0" d="M31.4,73.6c0.6,0.5,0.8,1.1,0.8,1.8c0,0.7-0.3,1.3-0.8,1.8c-0.6,0.5-1.2,0.7-2,0.7c-0.8,0-1.5-0.2-2-0.7
			c-0.6-0.5-0.8-1.1-0.8-1.8c0-0.7,0.3-1.3,0.8-1.8c0.6-0.5,1.2-0.7,2-0.7C30.2,72.9,30.9,73.1,31.4,73.6z M29.4,73.5
			c-0.6,0-1.1,0.2-1.5,0.6c-0.4,0.4-0.6,0.8-0.6,1.3c0,0.5,0.2,1,0.6,1.3c0.4,0.4,0.9,0.6,1.5,0.6c0.6,0,1.1-0.2,1.5-0.6
			c0.4-0.4,0.6-0.8,0.6-1.3c0-0.5-0.2-1-0.6-1.3C30.5,73.7,30,73.5,29.4,73.5z"/>
		<path class="st0" d="M33.7,73h0.6l2.3,3.5V73h0.7v4.9h-0.6l-2.3-3.6v3.6h-0.7V73z"/>
		<path class="st0" d="M40.4,75.3c-0.4-0.1-0.7-0.3-1-0.5C39.2,74.7,39,74.4,39,74c0-0.3,0.1-0.6,0.4-0.8c0.2-0.2,0.6-0.3,0.9-0.3
			c0.4,0,0.6,0.1,0.9,0.3c0.2,0.1,0.3,0.3,0.4,0.6L41,74.1c-0.1-0.2-0.2-0.3-0.2-0.4c-0.1-0.1-0.2-0.2-0.4-0.2c-0.2,0-0.3,0-0.4,0.2
			c-0.1,0.1-0.2,0.2-0.2,0.4c0,0.2,0,0.3,0.2,0.4c0.1,0.1,0.3,0.2,0.5,0.3c0.4,0.1,0.8,0.3,1.1,0.6c0.3,0.3,0.5,0.6,0.5,1.1
			c0,0.4-0.2,0.8-0.5,1.1c-0.3,0.3-0.7,0.4-1.2,0.4c-0.5,0-0.9-0.2-1.2-0.4c-0.3-0.2-0.4-0.6-0.5-1l0.7-0.2c0,0.4,0.2,0.6,0.3,0.8
			c0.2,0.2,0.4,0.3,0.7,0.3c0.3,0,0.5-0.1,0.7-0.3c0.2-0.2,0.3-0.4,0.3-0.6s-0.1-0.4-0.3-0.6C40.9,75.6,40.7,75.5,40.4,75.3z"/>
		<path class="st0" d="M46.4,73h0.7v3.5c-0.1,0.4-0.2,0.7-0.6,1c-0.4,0.3-0.8,0.5-1.3,0.5c-0.5,0-1-0.2-1.3-0.5
			c-0.4-0.3-0.6-0.7-0.6-1.2V73H44v3.3c0,0.3,0.1,0.5,0.3,0.7c0.2,0.2,0.5,0.3,0.8,0.3c0.3,0,0.6-0.1,0.8-0.3
			c0.2-0.2,0.3-0.4,0.3-0.7L46.4,73L46.4,73z"/>
		<path class="st0" d="M48.7,77.9V73h0.7v4.3h2v0.6H48.7L48.7,77.9z"/>
		<path class="st0" d="M54.1,73.6v4.3h-0.7v-4.3h-1.3V73h3.3v0.6H54.1z"/>
		<path class="st0" d="M61.2,73.6c0.6,0.5,0.8,1.1,0.8,1.8c0,0.7-0.3,1.3-0.8,1.8c-0.6,0.5-1.2,0.7-2,0.7c-0.8,0-1.5-0.2-2-0.7
			c-0.6-0.5-0.8-1.1-0.8-1.8c0-0.7,0.3-1.3,0.8-1.8c0.6-0.5,1.2-0.7,2-0.7C59.9,72.9,60.6,73.1,61.2,73.6z M59.1,73.5
			c-0.6,0-1.1,0.2-1.5,0.6c-0.4,0.4-0.6,0.8-0.6,1.3c0,0.5,0.2,1,0.6,1.3c0.4,0.4,0.9,0.6,1.5,0.6s1.1-0.2,1.5-0.6
			c0.4-0.4,0.6-0.8,0.6-1.3c0-0.5-0.2-1-0.6-1.3C60.2,73.7,59.7,73.5,59.1,73.5z"/>
		<path class="st0" d="M64.8,76.3h-0.6v1.6h-0.7V73H65c0.4,0,0.8,0.2,1.1,0.5c0.4,0.3,0.6,0.7,0.6,1.2c0,0.5-0.2,0.8-0.6,1.2
			c-0.2,0.2-0.4,0.4-0.6,0.4l1.2,1.7h-0.9L64.8,76.3z M64.2,73.6v2.1h0.6c0.3,0,0.6-0.1,0.8-0.3c0.2-0.2,0.3-0.4,0.3-0.7
			s-0.1-0.5-0.3-0.7c-0.2-0.2-0.5-0.3-0.8-0.3H64.2z"/>
		<path class="st0" d="M68.8,73v4.9h-0.7V73H68.8z"/>
		<path class="st0" d="M72.6,73l2,4.9h-0.8l-0.7-1.7h-1.5l-0.7,1.7h-0.8l2-4.9H72.6z M72.8,75.5l-0.5-1.2l-0.5,1.2H72.8z"/>
		<path class="st0" d="M81.8,73v0.6h-2.3v1.5h2.3v0.6h-2.3v1.5h2.3v0.6h-3V73L81.8,73L81.8,73z"/>
		<path class="st0" d="M84.1,73l1.8,2.8l1.8-2.8h0.6v4.9h-0.7v-3.6L85.9,77l-1.7-2.7v3.6h-0.7V73H84.1z"/>
		<path class="st0" d="M93.8,76.3v1.6h-0.7V73h1.6c0.4,0,0.8,0.2,1.1,0.5c0.4,0.3,0.6,0.7,0.6,1.2c0,0.5-0.2,0.8-0.6,1.2
			c-0.4,0.3-0.8,0.5-1.3,0.5L93.8,76.3L93.8,76.3z M93.8,73.6v2.1h0.6c0.3,0,0.6-0.1,0.8-0.3c0.2-0.2,0.3-0.4,0.3-0.7
			s-0.1-0.5-0.3-0.7c-0.2-0.2-0.5-0.3-0.8-0.3H93.8z"/>
		<path class="st0" d="M100.6,73v0.6h-2.3v1.5h2.3v0.6h-2.3v1.5h2.3v0.6h-3V73L100.6,73L100.6,73z"/>
		<path class="st0" d="M103.4,76.3h-0.6v1.6H102V73h1.6c0.4,0,0.8,0.2,1.1,0.5c0.4,0.3,0.6,0.7,0.6,1.2c0,0.5-0.2,0.8-0.6,1.2
			c-0.2,0.2-0.4,0.4-0.6,0.4l1.2,1.7h-0.9L103.4,76.3z M102.8,73.6v2.1h0.6c0.3,0,0.6-0.1,0.8-0.3c0.2-0.2,0.3-0.4,0.3-0.7
			s-0.1-0.5-0.3-0.7c-0.2-0.2-0.5-0.3-0.8-0.3H102.8z"/>
		<path class="st0" d="M108.1,75.3c-0.4-0.1-0.7-0.3-1-0.5s-0.4-0.5-0.4-0.8c0-0.3,0.1-0.6,0.4-0.8s0.6-0.3,0.9-0.3
			c0.4,0,0.6,0.1,0.9,0.3c0.2,0.1,0.3,0.3,0.4,0.6l-0.6,0.2c-0.1-0.2-0.2-0.3-0.2-0.4c-0.1-0.1-0.2-0.2-0.4-0.2s-0.3,0-0.4,0.2
			c-0.1,0.1-0.2,0.2-0.2,0.4c0,0.2,0,0.3,0.2,0.4c0.1,0.1,0.3,0.2,0.5,0.3c0.4,0.1,0.8,0.3,1.1,0.6c0.3,0.3,0.5,0.6,0.5,1.1
			c0,0.4-0.2,0.8-0.5,1.1c-0.3,0.3-0.7,0.4-1.2,0.4s-0.9-0.2-1.2-0.4c-0.3-0.2-0.4-0.6-0.5-1l0.7-0.2c0,0.4,0.2,0.6,0.3,0.8
			c0.2,0.2,0.4,0.3,0.7,0.3c0.3,0,0.5-0.1,0.7-0.3c0.2-0.2,0.3-0.4,0.3-0.6s-0.1-0.4-0.3-0.6C108.5,75.6,108.3,75.5,108.1,75.3z"/>
		<path class="st0" d="M115.7,73.6c0.6,0.5,0.8,1.1,0.8,1.8c0,0.7-0.3,1.3-0.8,1.8c-0.6,0.5-1.2,0.7-2,0.7c-0.8,0-1.5-0.2-2-0.7
			c-0.6-0.5-0.8-1.1-0.8-1.8c0-0.7,0.3-1.3,0.8-1.8c0.6-0.5,1.2-0.7,2-0.7C114.5,72.9,115.2,73.1,115.7,73.6z M113.8,73.5
			c-0.6,0-1.1,0.2-1.5,0.6c-0.4,0.4-0.6,0.8-0.6,1.3c0,0.5,0.2,1,0.6,1.3c0.4,0.4,0.9,0.6,1.5,0.6c0.6,0,1.1-0.2,1.5-0.6
			c0.4-0.4,0.6-0.8,0.6-1.3c0-0.5-0.2-1-0.6-1.3S114.3,73.5,113.8,73.5z"/>
		<path class="st0" d="M118.1,73h0.6l2.3,3.5V73h0.7v4.9h-0.6l-2.3-3.6v3.6h-0.7V73z"/>
		<path class="st0" d="M125.4,73l2,4.9h-0.8l-0.7-1.7h-1.5l-0.7,1.7h-0.8l2-4.9H125.4z M125.7,75.5l-0.5-1.2l-0.5,1.2H125.7z"/>
		<path class="st0" d="M128.6,77.9V73h0.7v4.3h2v0.6H128.6L128.6,77.9z"/>
		<path class="st0" d="M136.8,73c0.3,0,0.6,0.1,0.8,0.3c0.2,0.2,0.3,0.4,0.3,0.7c0,0.3-0.2,0.5-0.5,0.6c0.2,0,0.5,0.2,0.8,0.4
			c0.3,0.3,0.4,0.6,0.4,1.1c0,0.5-0.2,0.9-0.6,1.3c-0.4,0.3-0.7,0.5-1.1,0.5l0,0h-1.4V73L136.8,73L136.8,73z M136.4,73.6v0.8h0.5
			c0.1,0,0.2,0,0.3-0.1c0.1-0.1,0.1-0.2,0.1-0.3s0-0.2-0.1-0.3c-0.1-0.1-0.2-0.1-0.3-0.1L136.4,73.6L136.4,73.6z M136.4,75v2.2h0.7
			l0,0c0.2,0,0.3-0.1,0.6-0.3c0.2-0.2,0.4-0.5,0.4-0.8c0-0.3-0.1-0.6-0.4-0.8c-0.2-0.2-0.5-0.3-0.9-0.3H136.4z"/>
		<path class="st0" d="M141.5,76.3h-0.6v1.6h-0.7V73h1.6c0.4,0,0.8,0.2,1.1,0.5c0.4,0.3,0.6,0.7,0.6,1.2c0,0.5-0.2,0.8-0.6,1.2
			c-0.2,0.2-0.4,0.4-0.6,0.4l1.2,1.7h-0.9L141.5,76.3z M140.9,73.6v2.1h0.6c0.3,0,0.6-0.1,0.8-0.3c0.2-0.2,0.3-0.4,0.3-0.7
			s-0.1-0.5-0.3-0.7c-0.2-0.2-0.5-0.3-0.8-0.3H140.9z"/>
		<path class="st0" d="M146.8,73l2,4.9H148l-0.7-1.7h-1.5l-0.7,1.7h-0.8l2-4.9H146.8z M147,75.5l-0.5-1.2l-0.5,1.2H147z"/>
		<path class="st0" d="M150,73h0.6l2.3,3.5V73h0.7v4.9h-0.6l-2.3-3.6v3.6H150V73z"/>
		<path class="st0" d="M155.8,73c0.9,0,1.6,0.2,2.1,0.7c0.6,0.5,0.8,1.1,0.8,1.8c0,0.7-0.3,1.3-0.8,1.8c-0.5,0.4-1.2,0.7-2.1,0.7
			h-0.5V73L155.8,73L155.8,73z M156,73.6v3.6c0.6,0,1.1-0.2,1.4-0.5c0.4-0.4,0.6-0.8,0.6-1.3c0-0.5-0.2-1-0.6-1.3
			C157,73.8,156.5,73.6,156,73.6z"/>
		<path class="st0" d="M160.9,73v4.9h-0.7V73H160.9z"/>
		<path class="st0" d="M162.6,73h0.6l2.3,3.5V73h0.7v4.9h-0.6l-2.3-3.6v3.6h-0.7V73z"/>
		<path class="st0" d="M172.5,77.2c-0.6,0.5-1.2,0.7-1.9,0.7c-0.8,0-1.5-0.2-2-0.7c-0.6-0.5-0.8-1.1-0.8-1.8c0-0.7,0.3-1.3,0.8-1.8
			c0.6-0.5,1.2-0.7,2-0.7c0.7,0,1.4,0.3,2.1,0.8l-0.5,0.4c-0.5-0.4-1-0.6-1.5-0.6c-0.6,0-1.1,0.2-1.5,0.6c-0.4,0.4-0.6,0.8-0.6,1.3
			c0,0.5,0.2,1,0.6,1.3c0.4,0.4,0.9,0.6,1.5,0.6c0.5,0,0.9-0.1,1.3-0.4v-1.5h0.7L172.5,77.2L172.5,77.2z"/>
	</g>
</g>
<g>
	<g>
		<path class="st0" d="M87.7,18.8c0.4-0.4,0.8-0.7,1.2-1c0.8-0.6,1.7-1.1,2.6-1.5c0.5-0.2,1-0.3,1.5-0.4c1.4-0.2,2.7-0.1,4-0.7
			c1.1-0.4,2-1.2,2.6-2.1c0.2-0.4,0.4-0.8,0.5-1.3c0.1-0.3,0.1-0.6,0.1-0.8c0-2.7-2.8-4.9-6.3-4.9H83.6v22.6H84c0-0.1,0-0.2,0-0.3
			c0-2.5,0.9-4.9,2-7.1C86.5,20.4,87,19.5,87.7,18.8z M86.5,6.4h6.2c3.3,0,4.6,2.1,4.6,4.6c0,4.7-7,3.3-10.8,8.9L86.5,6.4L86.5,6.4z
			"/>
		<path class="st0" d="M96.7,16.7c-4.9,0-9.3,2.4-9.7,6c0.2,1.2,1.6,1,1.9,0c0.9-3.1,4.4-5.6,8.2-5.6c7.2,0,9.5,6.2,9.5,10.8
			c0,4.8-2.5,11.6-10,11.6c-2.2,0-5.2-0.9-7.1-2.6v-8.2h5.5c4.6,0,8.4-3,8.4-6.6l0,0c0-1.1-0.6-2.1-1.5-2.7
			c-0.8-0.5-1.6-0.9-2.5-1.1c0.8,1.1,1.2,2.4,1.2,3.8c0,3.5-2.3,6.3-6.7,6.3h-4.4h-0.8h-2.1v11.2h0.4l2.5-2.3
			c1.9,1.7,4.4,2.7,7.3,2.7c8.5,0,12.6-5.7,12.6-11.7C109.3,22.4,105.2,16.7,96.7,16.7z"/>
		<path class="st0" d="M88.7,26.1c0-0.5-0.4-0.8-0.8-0.8c-0.5,0-0.8,0.4-0.8,0.8c0,0.5,0.4,0.8,0.8,0.8
			C88.3,26.9,88.7,26.5,88.7,26.1z"/>
	</g>
</g>
</svg>
