<?xml version="1.0" encoding="utf-8"?>
<!-- Generator: Adobe Illustrator 24.0.2, SVG Export Plug-In . SVG Version: 6.00 Build 0)  -->
<svg version="1.1" id="Camada_1" xmlns="http://www.w3.org/2000/svg" xmlns:xlink="http://www.w3.org/1999/xlink" x="0px" y="0px"
	 viewBox="0 0 610.7 284.1" style="enable-background:new 0 0 610.7 284.1;" xml:space="preserve">
<style type="text/css">
	.st0{fill:#FFFFFF;}
</style>
<g>
	<g>
		<g>
			<path class="st0" d="M51.4,206.1c0,5.9-3.9,10.7-11.5,10.7H27.4v-14c0,0,5.5-7.4,12.4-7.4C47.5,195.4,51.4,200.2,51.4,206.1z
				 M38.1,179.2c5.6,0,7.9,3.5,7.9,7.9c0,8.1-11.9,5.5-18.6,15.1v-22.9H38.1z M43.4,195c4.3-1.1,7.5-4.2,7.5-7.9
				c0-4.6-4.8-8.3-10.7-8.3H22.5v38.5h19.2c8,0,14.4-5,14.4-11.2C56.2,200.3,50.6,195.6,43.4,195z"/>
		</g>
		<g>
			<path class="st0" d="M72.4,200.6v-21.4h9.2c7.6,0,11.5,4.8,11.5,10.7c0,5.9-3.9,10.7-11.5,10.7H72.4z M104.6,216.8
				c-3.4,0-6.4-3.5-9.6-9.2c-1.3-2.4-3.9-5.5-9.9-6.6c7.3-0.6,12.9-5.3,12.9-11.1c0-6.2-6.5-11.2-14.4-11.2h-16v38.5h4.9v-16.2h3.4
				c11.6,0,13.7,5.1,14.7,6.7c1.8,3.2,6.8,9.5,13.1,9.5h1.5v-0.5H104.6z"/>
		</g>
		<g>
			<path class="st0" d="M117.4,178.7v30c0,6.6,8.2,8.4,12.5,8.4c7.3,0,13.8-6.1,13.8-11.1v-27.3h0.6v27c0,6.8-7.1,12.3-15.9,12.3
				c-8.8,0-15.9-5.5-15.9-12.3v-27H117.4z"/>
		</g>
		<g>
			<polygon class="st0" points="189.5,178.7 189.5,213.2 159.4,178.7 157.2,178.7 157.2,217.2 157.8,217.2 157.8,183.1 187.7,217.2 
				190.1,217.2 190.1,178.7 			"/>
		</g>
		<g>
			<path class="st0" d="M205.8,205.8l10.4-23.4l10.6,23.4H205.8z M236.8,217.3l-17.1-38.5l-2.4,0l-17.1,38.5h0.6l4.9-11v0H227
				l4.9,10.9H236.8z"/>
		</g>
		<g>
			<path class="st0" d="M294.1,178.7h-12.8v38.5h12.8c14.5,0,21.6-9.4,21.6-19.2C315.7,188.2,308.6,178.7,294.1,178.7z M293.5,179.2
				c12.9,0,17.4,11.4,17.4,19.5c0,7.7-3.9,18.1-16.2,18.1l-8.5,0v-37.6L293.5,179.2z"/>
		</g>
		<g>
			<path class="st0" d="M326.7,205.8l10.4-23.4l10.6,23.4H326.7z M357.8,217.3l-17.1-38.5l-2.4,0l-17.1,38.5h0.6l4.9-11v0h21.4
				l4.9,10.9H357.8z"/>
		</g>
		<g>
			<path class="st0" d="M422.5,178.1c-14.5,0-21.6,9.8-21.6,19.9c0,10.1,7.1,19.9,21.6,19.9c5.1,0,9.3-1.7,12.6-4.5l4.3,3.8h0.6
				v-21.2h-4.9v16.5c-3.2,2.9-8.4,4.5-12.2,4.5c-12.8,0-17.2-11.6-17.2-19.8c0-7.8,3.9-18.4,16.2-18.4c6.6,0,12.6,4.2,14.1,9.5h3.2
				C436.7,181.9,431,178.1,422.5,178.1z"/>
		</g>
		<g>
			<path class="st0" d="M455.3,205.8l10.4-23.4l10.6,23.4H455.3z M486.3,217.3l-17.1-38.5l-2.4,0l-17.1,38.5h0.6l4.9-11v0h21.4
				l4.9,10.9H486.3z"/>
		</g>
		<g>
			<path class="st0" d="M536.5,178.7h-2.8c-0.2,6.9-13.6,18.3-12.8,34.8l0.4,0L506,178.7h-3.3l-7.8,38.5h0.6l7.1-34.8l15.8,34.8
				l4.7,0c-0.8-2.1-1.2-4.3-1.2-6.5c0-10.9,9.3-23.5,11.9-27.8l-1.1,0.5l9.8,33.8h4.9L536.5,178.7z"/>
		</g>
		<g>
			<path class="st0" d="M561.8,205.8l10.4-23.4l10.6,23.4H561.8z M592.8,217.3l-17.1-38.5l-2.4,0l-17.1,38.5h0.6l4.9-11v0H583
				l4.9,10.9H592.8z"/>
		</g>
	</g>
</g>
<g>
	<g>
		<path class="st0" d="M86.3,257.4l1.7,1.3c-2,1.6-4.2,2.5-6.4,2.5c-2.4,0-4.5-0.8-6.2-2.3c-1.7-1.5-2.6-3.4-2.6-5.5
			c0-2.1,0.9-4,2.6-5.5c1.7-1.5,3.8-2.3,6.2-2.3c2.3,0,4.4,0.8,6.4,2.5l-1.7,1.3c-1.5-1.2-3.1-1.8-4.8-1.8c-1.8,0-3.3,0.6-4.6,1.7
			c-1.3,1.1-1.9,2.5-1.9,4.1c0,1.6,0.6,3,1.9,4.1c1.3,1.1,2.8,1.7,4.6,1.7C83.2,259.2,84.8,258.6,86.3,257.4z"/>
		<path class="st0" d="M107,247.8c1.7,1.5,2.6,3.4,2.6,5.5c0,2.2-0.9,4-2.6,5.5c-1.7,1.5-3.8,2.3-6.2,2.3c-2.4,0-4.5-0.8-6.2-2.3
			c-1.7-1.5-2.6-3.4-2.6-5.5c0-2.2,0.9-4,2.6-5.5c1.7-1.5,3.8-2.3,6.2-2.3C103.2,245.6,105.3,246.3,107,247.8z M100.8,247.5
			c-1.8,0-3.3,0.6-4.6,1.7c-1.3,1.1-1.9,2.5-1.9,4.1c0,1.6,0.6,3,1.9,4.1c1.3,1.1,2.8,1.7,4.6,1.7c1.8,0,3.3-0.6,4.6-1.7
			c1.3-1.1,1.9-2.5,1.9-4.1c0-1.6-0.6-3-1.9-4.1C104.1,248.1,102.6,247.5,100.8,247.5z"/>
		<path class="st0" d="M114.1,245.8h2l7.1,10.9v-10.9h2.2V261h-1.9l-7.2-11v11h-2.2V245.8z"/>
		<path class="st0" d="M134.6,253.2c-1.2-0.4-2.2-0.9-2.9-1.5c-0.8-0.7-1.1-1.5-1.1-2.5c0-1,0.4-1.8,1.2-2.5c0.8-0.7,1.7-1,2.8-1
			c1.1,0,2,0.3,2.8,1c0.4,0.4,0.8,1,1.1,1.8l-2,0.7c-0.2-0.6-0.5-1-0.7-1.1c-0.3-0.3-0.8-0.5-1.3-0.5c-0.5,0-0.9,0.2-1.3,0.5
			c-0.4,0.3-0.5,0.7-0.5,1.1s0.2,0.8,0.5,1.1c0.4,0.3,0.9,0.7,1.6,0.9c1.3,0.4,2.5,1,3.4,1.8c1,0.9,1.6,2,1.6,3.4
			c0,1.3-0.5,2.4-1.6,3.4c-1,0.9-2.3,1.4-3.8,1.4c-1.5,0-2.7-0.5-3.8-1.4c-0.8-0.7-1.4-1.8-1.6-3.1l2.1-0.7c0.1,1.1,0.5,1.9,1,2.4
			c0.6,0.5,1.4,0.8,2.2,0.8c0.9,0,1.6-0.3,2.2-0.8c0.6-0.5,0.9-1.2,0.9-2c0-0.8-0.3-1.4-0.9-2C136.2,253.9,135.5,253.5,134.6,253.2z
			"/>
		<path class="st0" d="M153.1,245.8h2.2v10.7c-0.2,1.2-0.8,2.3-1.7,3.1c-1.1,1-2.5,1.5-4.1,1.5c-1.6,0-3-0.5-4.1-1.5
			c-1.1-1-1.7-2.2-1.7-3.7v-10.2h2.2v10.2c0,0.9,0.4,1.6,1.1,2.3c0.7,0.6,1.5,0.9,2.5,0.9c1,0,1.8-0.3,2.5-0.9c0.7-0.6,1-1.4,1-2.3
			V245.8z"/>
		<path class="st0" d="M160.2,261v-15.2h2.2V259h6.1v2H160.2z"/>
		<path class="st0" d="M177,247.7V261h-2.2v-13.3h-4v-2H181v2H177z"/>
		<path class="st0" d="M198.7,247.8c1.7,1.5,2.6,3.4,2.6,5.5c0,2.2-0.9,4-2.6,5.5c-1.7,1.5-3.8,2.3-6.2,2.3c-2.4,0-4.5-0.8-6.2-2.3
			c-1.7-1.5-2.6-3.4-2.6-5.5c0-2.2,0.9-4,2.6-5.5c1.7-1.5,3.8-2.3,6.2-2.3C194.9,245.6,197,246.3,198.7,247.8z M192.5,247.5
			c-1.8,0-3.3,0.6-4.6,1.7c-1.3,1.1-1.9,2.5-1.9,4.1c0,1.6,0.6,3,1.9,4.1c1.3,1.1,2.8,1.7,4.6,1.7c1.8,0,3.3-0.6,4.6-1.7
			c1.3-1.1,1.9-2.5,1.9-4.1c0-1.6-0.6-3-1.9-4.1C195.8,248.1,194.3,247.5,192.5,247.5z"/>
		<path class="st0" d="M210.1,256.1h-2v4.9h-2.2v-15.2h4.9c1.4,0.2,2.5,0.7,3.5,1.5c1.1,1,1.7,2.2,1.7,3.7c0,1.4-0.6,2.7-1.7,3.7
			c-0.8,0.7-1.4,1.1-1.8,1.2l3.8,5.2h-2.7L210.1,256.1z M208.1,247.7v6.4h2c1,0,1.8-0.3,2.5-0.9c0.7-0.6,1.1-1.4,1.1-2.3
			c0-0.9-0.4-1.6-1.1-2.3c-0.7-0.6-1.5-0.9-2.5-0.9H208.1z"/>
		<path class="st0" d="M222.4,245.8V261h-2.2v-15.2H222.4z"/>
		<path class="st0" d="M233.9,245.8l6.2,15.2h-2.4l-2.2-5.4H231l-2.2,5.4h-2.4l6.2-15.2H233.9z M234.7,253.6l-1.5-3.6l-1.5,3.6
			H234.7z"/>
		<path class="st0" d="M262.3,245.8v2h-7v4.7h7v2h-7v4.7h7v2h-9.2v-15.2H262.3z"/>
		<path class="st0" d="M269.4,245.8l5.6,8.5l5.5-8.5h2V261h-2.2v-11l-5.3,8.2l-5.4-8.2v11h-2.2v-15.2H269.4z"/>
		<path class="st0" d="M299.4,256.1v4.9h-2.2v-15.2h4.9c1.4,0.2,2.5,0.7,3.5,1.5c1.1,1,1.7,2.2,1.7,3.7c0,1.4-0.6,2.7-1.7,3.7
			c-1.1,1-2.5,1.5-4.1,1.5H299.4z M299.4,247.7v6.4h2c1,0,1.8-0.3,2.5-0.9c0.7-0.6,1.1-1.4,1.1-2.3c0-0.9-0.4-1.6-1.1-2.3
			c-0.7-0.6-1.5-0.9-2.5-0.9H299.4z"/>
		<path class="st0" d="M320.3,245.8v2h-7v4.7h7v2h-7v4.7h7v2H311v-15.2H320.3z"/>
		<path class="st0" d="M329.1,256.1h-2v4.9h-2.2v-15.2h4.9c1.4,0.2,2.5,0.7,3.5,1.5c1.1,1,1.7,2.2,1.7,3.7c0,1.4-0.6,2.7-1.7,3.7
			c-0.8,0.7-1.4,1.1-1.8,1.2l3.8,5.2h-2.7L329.1,256.1z M327.1,247.7v6.4h2c1,0,1.8-0.3,2.5-0.9c0.7-0.6,1.1-1.4,1.1-2.3
			c0-0.9-0.4-1.6-1.1-2.3c-0.7-0.6-1.5-0.9-2.5-0.9H327.1z"/>
		<path class="st0" d="M343.4,253.2c-1.2-0.4-2.2-0.9-2.9-1.5c-0.8-0.7-1.1-1.5-1.1-2.5c0-1,0.4-1.8,1.2-2.5c0.8-0.7,1.7-1,2.8-1
			c1.1,0,2,0.3,2.8,1c0.4,0.4,0.8,1,1.1,1.8l-2,0.7c-0.2-0.6-0.5-1-0.7-1.1c-0.3-0.3-0.8-0.5-1.3-0.5c-0.5,0-0.9,0.2-1.3,0.5
			c-0.4,0.3-0.5,0.7-0.5,1.1s0.2,0.8,0.5,1.1c0.4,0.3,0.9,0.7,1.6,0.9c1.3,0.4,2.5,1,3.4,1.8c1,0.9,1.6,2,1.6,3.4
			c0,1.3-0.5,2.4-1.6,3.4c-1,0.9-2.3,1.4-3.8,1.4c-1.5,0-2.7-0.5-3.8-1.4c-0.8-0.7-1.4-1.8-1.6-3.1l2.1-0.7c0.1,1.1,0.5,1.9,1,2.4
			c0.6,0.5,1.4,0.8,2.2,0.8c0.9,0,1.6-0.3,2.2-0.8c0.6-0.5,0.9-1.2,0.9-2c0-0.8-0.3-1.4-0.9-2C344.9,253.9,344.2,253.5,343.4,253.2z
			"/>
		<path class="st0" d="M367.1,247.8c1.7,1.5,2.6,3.4,2.6,5.5c0,2.2-0.9,4-2.6,5.5c-1.7,1.5-3.8,2.3-6.2,2.3c-2.4,0-4.5-0.8-6.2-2.3
			c-1.7-1.5-2.6-3.4-2.6-5.5c0-2.2,0.9-4,2.6-5.5c1.7-1.5,3.8-2.3,6.2-2.3C363.3,245.6,365.4,246.3,367.1,247.8z M360.9,247.5
			c-1.8,0-3.3,0.6-4.6,1.7c-1.3,1.1-1.9,2.5-1.9,4.1c0,1.6,0.6,3,1.9,4.1c1.3,1.1,2.8,1.7,4.6,1.7c1.8,0,3.3-0.6,4.6-1.7
			c1.3-1.1,1.9-2.5,1.9-4.1c0-1.6-0.6-3-1.9-4.1C364.3,248.1,362.7,247.5,360.9,247.5z"/>
		<path class="st0" d="M374.3,245.8h2l7.1,10.9v-10.9h2.2V261h-1.9l-7.2-11v11h-2.2V245.8z"/>
		<path class="st0" d="M396.8,245.8L403,261h-2.4l-2.2-5.4h-4.5l-2.2,5.4h-2.4l6.2-15.2H396.8z M397.7,253.6l-1.5-3.6l-1.5,3.6
			H397.7z"/>
		<path class="st0" d="M406.8,261v-15.2h2.2V259h6.1v2H406.8z"/>
		<path class="st0" d="M432,245.8c1,0,1.8,0.3,2.5,0.9c0.7,0.6,1.1,1.4,1.1,2.3c0,0.9-0.5,1.5-1.5,1.7c0.7,0.1,1.6,0.6,2.5,1.4
			c0.9,0.8,1.4,2,1.4,3.5c0,1.5-0.6,2.8-1.8,3.9c-1.1,1-2.2,1.5-3.3,1.6v0h-4.4v-15.2H432z M430.8,247.7v2.4h1.4
			c0.3,0,0.6-0.1,0.8-0.3c0.3-0.2,0.4-0.5,0.4-0.8c0-0.4-0.1-0.6-0.4-0.9c-0.3-0.2-0.6-0.3-1-0.3H430.8z M430.8,252.2v6.8h2.2v0
			c0.5,0,1-0.4,1.7-1c0.7-0.7,1.1-1.5,1.1-2.4c0-0.9-0.4-1.7-1.1-2.4c-0.7-0.7-1.6-1-2.7-1H430.8z"/>
		<path class="st0" d="M446.5,256.1h-2v4.9h-2.2v-15.2h4.9c1.4,0.2,2.5,0.7,3.5,1.5c1.1,1,1.7,2.2,1.7,3.7c0,1.4-0.6,2.7-1.7,3.7
			c-0.8,0.7-1.4,1.1-1.8,1.2l3.8,5.2h-2.7L446.5,256.1z M444.5,247.7v6.4h2c1,0,1.8-0.3,2.5-0.9c0.7-0.6,1.1-1.4,1.1-2.3
			c0-0.9-0.4-1.6-1.1-2.3c-0.7-0.6-1.5-0.9-2.5-0.9H444.5z"/>
		<path class="st0" d="M462.8,245.8L469,261h-2.4l-2.2-5.4h-4.5l-2.2,5.4h-2.4l6.2-15.2H462.8z M463.6,253.6l-1.5-3.6l-1.5,3.6
			H463.6z"/>
		<path class="st0" d="M472.8,245.8h2l7.1,10.9v-10.9h2.2V261h-1.9l-7.2-11v11h-2.2V245.8z"/>
		<path class="st0" d="M490.6,245.8c2.8,0,4.9,0.7,6.5,2.1c1.7,1.5,2.6,3.4,2.6,5.5c0,2.2-0.9,4-2.6,5.5c-1.6,1.4-3.7,2.1-6.5,2.1
			h-1.6v-15.2H490.6z M491.2,247.8V259c1.8,0,3.2-0.5,4.3-1.5c1.3-1.1,1.9-2.5,1.9-4.1c0-1.6-0.6-3-1.9-4.1
			C494.4,248.3,492.9,247.8,491.2,247.8z"/>
		<path class="st0" d="M506.4,245.8V261h-2.2v-15.2H506.4z"/>
		<path class="st0" d="M511.5,245.8h2l7.1,10.9v-10.9h2.2V261h-1.9l-7.2-11v11h-2.2V245.8z"/>
		<path class="st0" d="M542.1,258.9c-1.8,1.5-3.8,2.2-6,2.2c-2.4,0-4.5-0.8-6.2-2.3c-1.7-1.5-2.6-3.4-2.6-5.5c0-2.1,0.9-4,2.6-5.5
			c1.7-1.5,3.8-2.3,6.2-2.3c2.3,0,4.4,0.8,6.4,2.5l-1.7,1.3c-1.5-1.2-3.1-1.8-4.8-1.8c-1.8,0-3.3,0.6-4.6,1.7
			c-1.3,1.1-1.9,2.5-1.9,4.1c0,1.6,0.6,3,1.9,4.1c1.3,1.1,2.8,1.7,4.6,1.7c1.5,0,2.8-0.4,3.8-1.1v-4.6h2.2V258.9z"/>
	</g>
</g>
<g>
	<g>
		<path class="st0" d="M280.6,78.8c1.2-1.1,2.4-2.2,3.6-3.2c2.4-1.9,5.1-3.6,8-4.6c1.5-0.6,3.1-1,4.7-1.2c4.2-0.5,8.3-0.4,12.3-2.2
			c3.2-1.4,6.1-3.6,7.9-6.6c0.7-1.2,1.2-2.5,1.5-3.8c0.2-0.9,0.3-1.7,0.3-2.6c0-8.3-8.7-15.1-19.4-15.1h-31.6v69.7h1.2
			c0-0.3,0-0.6,0-0.8c0-7.8,2.9-14.9,6.1-21.9C276.7,83.8,278.3,81,280.6,78.8z M276.9,40.4h19.2c10.1,0,14.3,6.4,14.3,14.2
			c0,14.6-21.5,10.1-33.5,27.3V40.4z"/>
		<path class="st0" d="M308.3,72.2c-15.2,0-28.7,7.4-30,18.6c0.5,3.6,5,3,5.8,0c2.7-9.6,13.4-17.2,25.3-17.2
			c22.2,0,29.2,19.1,29.2,33.3c0,14.8-7.9,35.8-30.9,35.8c-6.7,0-16.1-2.9-21.9-8.1v-25.3h17.1c14.4,0,26-9.1,26-20.2c0,0,0,0,0-0.1
			c0-3.3-1.8-6.4-4.5-8.2c-2.3-1.6-5-2.8-7.8-3.5c2.4,3.3,3.6,7.4,3.6,11.8c0,10.7-7,19.4-20.7,19.4h-13.6h-2.4h-6.4v34.6h1.1l7.7-7
			c5.9,5.1,13.5,8.2,22.6,8.2c26.1,0,38.9-17.7,38.9-36.1C347.2,89.9,334.4,72.2,308.3,72.2z"/>
		<path class="st0" d="M283.7,101.1c0-1.4-1.2-2.6-2.6-2.6c-1.4,0-2.6,1.2-2.6,2.6c0,1.4,1.2,2.6,2.6,2.6
			C282.6,103.7,283.7,102.6,283.7,101.1z"/>
	</g>
</g>
</svg>
