<?xml version="1.0" encoding="utf-8"?>
<!-- Generator: Adobe Illustrator 24.0.2, SVG Export Plug-In . SVG Version: 6.00 Build 0)  -->
<svg version="1.1" id="Camada_1" xmlns="http://www.w3.org/2000/svg" xmlns:xlink="http://www.w3.org/1999/xlink" x="0px" y="0px"
	 viewBox="0 0 479.6 205.7" style="enable-background:new 0 0 479.6 205.7;" xml:space="preserve">
<style type="text/css">
	.st0{fill:#FFFFFF;}
</style>
<g>
	<g>
		<g>
			<path class="st0" d="M36.6,147.4c0,4.7-3.1,8.6-9.2,8.6h-10v-11.3c0,0,4.4-5.9,10-5.9C33.5,138.8,36.6,142.6,36.6,147.4z
				 M26,125.8c4.5,0,6.4,2.8,6.4,6.3c0,6.5-9.6,4.4-14.9,12.1v-18.4H26z M30.2,138.5c3.5-0.9,6-3.4,6-6.4c0-3.7-3.9-6.7-8.6-6.7
				H13.5v30.9H29c6.4,0,11.6-4,11.6-9C40.6,142.7,36,139,30.2,138.5z"/>
		</g>
		<g>
			<path class="st0" d="M53.5,143v-17.2h7.4c6.1,0,9.2,3.8,9.2,8.6c0,4.7-3.1,8.6-9.2,8.6H53.5z M79.3,155.9c-2.7,0-5.1-2.8-7.7-7.4
				c-1.1-1.9-3.1-4.4-8-5.3c5.8-0.5,10.4-4.3,10.4-8.9c0-4.9-5.2-9-11.6-9H49.6v30.9h3.9v-13h2.7c9.3,0,11,4.1,11.8,5.4
				c1.4,2.6,5.4,7.6,10.5,7.6h1.2v-0.4H79.3z"/>
		</g>
		<g>
			<path class="st0" d="M89.6,125.4v24.1c0,5.3,6.6,6.7,10,6.7c5.8,0,11-4.9,11-8.9v-21.9h0.5v21.7c0,5.4-5.7,9.8-12.7,9.8
				c-7,0-12.7-4.4-12.7-9.8v-21.7H89.6z"/>
		</g>
		<g>
			<polygon class="st0" points="147.4,125.4 147.4,153.1 123.3,125.4 121.6,125.4 121.6,156.3 122,156.3 122,129 146,156.3 
				147.9,156.3 147.9,125.4 			"/>
		</g>
		<g>
			<path class="st0" d="M160.5,147.2l8.4-18.8l8.5,18.8H160.5z M185.3,156.3l-13.7-30.9l-1.9,0l-13.7,30.9h0.5l3.9-8.8v0h17.1l4,8.8
				H185.3z"/>
		</g>
		<g>
			<path class="st0" d="M231.3,125.4H221v30.9h10.3c11.6,0,17.3-7.6,17.3-15.4C248.6,133,242.9,125.4,231.3,125.4z M230.8,125.8
				c10.4,0,13.9,9.2,13.9,15.6c0,6.2-3.1,14.5-13,14.5l-6.8,0v-30.1L230.8,125.8z"/>
		</g>
		<g>
			<path class="st0" d="M257.5,147.2l8.4-18.8l8.5,18.8H257.5z M282.3,156.3l-13.7-30.9l-1.9,0l-13.7,30.9h0.5l3.9-8.8v0h17.1l4,8.8
				H282.3z"/>
		</g>
		<g>
			<path class="st0" d="M334.3,124.9c-11.6,0-17.3,7.8-17.3,16c0,8.1,5.7,16,17.3,16c4,0,7.4-1.4,10.1-3.6l3.4,3.1h0.5v-17h-3.9
				v13.2c-2.6,2.3-6.8,3.6-9.8,3.6c-10.3,0-13.8-9.3-13.8-15.9c0-6.3,3.1-14.7,13-14.7c5.3,0,10.1,3.3,11.3,7.6h2.6
				C345.7,128,341,124.9,334.3,124.9z"/>
		</g>
		<g>
			<path class="st0" d="M360.5,147.2l8.4-18.8l8.5,18.8H360.5z M385.4,156.3l-13.7-30.9l-1.9,0L356,156.3h0.5l3.9-8.8v0h17.1l4,8.8
				H385.4z"/>
		</g>
		<g>
			<path class="st0" d="M425.7,125.4h-2.2c-0.2,5.6-10.9,14.7-10.3,27.9l0.3,0l-12.3-27.8h-2.6l-6.2,30.9h0.5l5.7-27.9l12.6,27.9
				l3.8,0c-0.6-1.7-1-3.4-1-5.2c0-8.8,7.5-18.8,9.6-22.3l-0.8,0.4l7.9,27.1h3.9L425.7,125.4z"/>
		</g>
		<g>
			<path class="st0" d="M445.9,147.2l8.4-18.8l8.5,18.8H445.9z M470.8,156.3L457,125.4l-1.9,0l-13.7,30.9h0.5l3.9-8.8v0h17.1l4,8.8
				H470.8z"/>
		</g>
	</g>
</g>
<g>
	<g>
		<path class="st0" d="M64.7,188.5l1.3,1.1c-1.6,1.3-3.3,2-5.2,2c-1.9,0-3.6-0.6-5-1.8c-1.4-1.2-2.1-2.7-2.1-4.4
			c0-1.7,0.7-3.2,2.1-4.4c1.4-1.2,3-1.8,5-1.8c1.8,0,3.5,0.7,5.2,2l-1.3,1.1c-1.2-1-2.5-1.5-3.8-1.5c-1.4,0-2.7,0.5-3.7,1.4
			c-1,0.9-1.5,2-1.5,3.3c0,1.3,0.5,2.4,1.5,3.3c1,0.9,2.2,1.4,3.7,1.4C62.2,189.9,63.5,189.5,64.7,188.5z"/>
		<path class="st0" d="M81.2,180.9c1.4,1.2,2.1,2.7,2.1,4.4c0,1.7-0.7,3.2-2.1,4.4c-1.4,1.2-3,1.8-5,1.8c-1.9,0-3.6-0.6-5-1.8
			c-1.4-1.2-2.1-2.7-2.1-4.4c0-1.7,0.7-3.2,2.1-4.4c1.4-1.2,3-1.8,5-1.8C78.2,179,79.9,179.6,81.2,180.9z M76.3,180.6
			c-1.4,0-2.7,0.5-3.7,1.4c-1,0.9-1.5,2-1.5,3.3c0,1.3,0.5,2.4,1.5,3.3c1,0.9,2.3,1.4,3.7,1.4c1.4,0,2.7-0.5,3.7-1.4
			c1-0.9,1.5-2,1.5-3.3c0-1.3-0.5-2.4-1.5-3.3C79,181.1,77.7,180.6,76.3,180.6z"/>
		<path class="st0" d="M87,179.2h1.6l5.7,8.7v-8.7H96v12.2h-1.6l-5.7-8.8v8.8H87V179.2z"/>
		<path class="st0" d="M103.4,185.1c-1-0.3-1.8-0.7-2.4-1.2c-0.6-0.5-0.9-1.2-0.9-2c0-0.8,0.3-1.4,0.9-2c0.6-0.6,1.4-0.8,2.3-0.8
			c0.9,0,1.6,0.3,2.3,0.8c0.4,0.3,0.7,0.8,0.9,1.5l-1.6,0.6c-0.2-0.5-0.4-0.8-0.5-0.9c-0.3-0.2-0.6-0.4-1-0.4c-0.4,0-0.7,0.1-1,0.4
			c-0.3,0.2-0.4,0.5-0.4,0.9s0.1,0.7,0.4,0.9c0.3,0.3,0.7,0.5,1.3,0.8c1.1,0.3,2,0.8,2.7,1.5c0.8,0.7,1.3,1.6,1.3,2.7
			c0,1.1-0.4,2-1.3,2.7c-0.8,0.7-1.8,1.1-3,1.1c-1.2,0-2.2-0.4-3-1.1c-0.7-0.6-1.1-1.4-1.3-2.5l1.7-0.6c0.1,0.9,0.4,1.5,0.8,1.9
			c0.5,0.4,1.1,0.7,1.8,0.7c0.7,0,1.3-0.2,1.8-0.7c0.5-0.4,0.7-1,0.7-1.6c0-0.6-0.2-1.1-0.7-1.6
			C104.7,185.7,104.1,185.4,103.4,185.1z"/>
		<path class="st0" d="M118.2,179.2h1.8v8.6c-0.2,1-0.6,1.8-1.4,2.5c-0.9,0.8-2,1.2-3.3,1.2c-1.3,0-2.4-0.4-3.3-1.2
			c-0.9-0.8-1.4-1.8-1.4-2.9v-8.2h1.8v8.2c0,0.7,0.3,1.3,0.8,1.8c0.6,0.5,1.2,0.8,2,0.8c0.8,0,1.5-0.2,2-0.7
			c0.6-0.5,0.8-1.1,0.8-1.8V179.2z"/>
		<path class="st0" d="M123.9,191.4v-12.2h1.8v10.6h4.9v1.6H123.9z"/>
		<path class="st0" d="M137.4,180.8v10.6h-1.8v-10.6h-3.2v-1.6h8.2v1.6H137.4z"/>
		<path class="st0" d="M154.8,180.9c1.4,1.2,2.1,2.7,2.1,4.4c0,1.7-0.7,3.2-2.1,4.4c-1.4,1.2-3,1.8-5,1.8c-1.9,0-3.6-0.6-5-1.8
			c-1.4-1.2-2.1-2.7-2.1-4.4c0-1.7,0.7-3.2,2.1-4.4c1.4-1.2,3-1.8,5-1.8C151.7,179,153.4,179.6,154.8,180.9z M149.8,180.6
			c-1.4,0-2.7,0.5-3.7,1.4c-1,0.9-1.5,2-1.5,3.3c0,1.3,0.5,2.4,1.5,3.3c1,0.9,2.3,1.4,3.7,1.4c1.4,0,2.7-0.5,3.7-1.4
			c1-0.9,1.5-2,1.5-3.3c0-1.3-0.5-2.4-1.5-3.3C152.5,181.1,151.3,180.6,149.8,180.6z"/>
		<path class="st0" d="M163.9,187.5h-1.6v3.9h-1.8v-12.2h3.9c1.1,0.1,2,0.5,2.8,1.2c0.9,0.8,1.4,1.8,1.4,2.9c0,1.2-0.5,2.1-1.4,2.9
			c-0.6,0.6-1.1,0.9-1.4,0.9l3,4.2h-2.2L163.9,187.5z M162.3,180.8v5.1h1.6c0.8,0,1.5-0.3,2-0.8c0.6-0.5,0.8-1.1,0.8-1.8
			c0-0.7-0.3-1.3-0.8-1.8c-0.6-0.5-1.2-0.7-2-0.7H162.3z"/>
		<path class="st0" d="M173.8,179.2v12.2h-1.8v-12.2H173.8z"/>
		<path class="st0" d="M183,179.2l5,12.2h-1.9l-1.8-4.3h-3.6l-1.8,4.3H177l5-12.2H183z M183.7,185.5l-1.2-2.9l-1.2,2.9H183.7z"/>
		<path class="st0" d="M205.8,179.2v1.6h-5.6v3.7h5.6v1.6h-5.6v3.7h5.6v1.6h-7.4v-12.2H205.8z"/>
		<path class="st0" d="M211.5,179.2l4.5,6.9l4.4-6.9h1.6v12.2h-1.8v-8.8l-4.3,6.6l-4.3-6.6v8.8h-1.8v-12.2H211.5z"/>
		<path class="st0" d="M235.5,187.5v3.9h-1.8v-12.2h3.9c1.1,0.1,2,0.5,2.8,1.2c0.9,0.8,1.4,1.8,1.4,2.9c0,1.2-0.5,2.1-1.4,2.9
			c-0.9,0.8-2,1.2-3.3,1.2H235.5z M235.5,180.8v5.1h1.6c0.8,0,1.5-0.3,2-0.8c0.6-0.5,0.8-1.1,0.8-1.8c0-0.7-0.3-1.3-0.8-1.8
			c-0.6-0.5-1.2-0.7-2-0.7H235.5z"/>
		<path class="st0" d="M252.3,179.2v1.6h-5.6v3.7h5.6v1.6h-5.6v3.7h5.6v1.6h-7.4v-12.2H252.3z"/>
		<path class="st0" d="M259.3,187.5h-1.6v3.9h-1.8v-12.2h3.9c1.1,0.1,2,0.5,2.8,1.2c0.9,0.8,1.4,1.8,1.4,2.9c0,1.2-0.5,2.1-1.4,2.9
			c-0.6,0.6-1.1,0.9-1.4,0.9l3,4.2h-2.2L259.3,187.5z M257.7,180.8v5.1h1.6c0.8,0,1.5-0.3,2-0.8c0.6-0.5,0.8-1.1,0.8-1.8
			c0-0.7-0.3-1.3-0.8-1.8c-0.6-0.5-1.2-0.7-2-0.7H257.7z"/>
		<path class="st0" d="M270.8,185.1c-1-0.3-1.8-0.7-2.4-1.2c-0.6-0.5-0.9-1.2-0.9-2c0-0.8,0.3-1.4,0.9-2c0.6-0.6,1.4-0.8,2.3-0.8
			c0.9,0,1.6,0.3,2.3,0.8c0.4,0.3,0.7,0.8,0.9,1.5l-1.6,0.6c-0.2-0.5-0.4-0.8-0.5-0.9c-0.3-0.2-0.6-0.4-1-0.4c-0.4,0-0.7,0.1-1,0.4
			c-0.3,0.2-0.4,0.5-0.4,0.9s0.1,0.7,0.4,0.9c0.3,0.3,0.7,0.5,1.3,0.8c1.1,0.3,2,0.8,2.7,1.5c0.8,0.7,1.3,1.6,1.3,2.7
			c0,1.1-0.4,2-1.3,2.7c-0.8,0.7-1.8,1.1-3,1.1c-1.2,0-2.2-0.4-3-1.1c-0.7-0.6-1.1-1.4-1.3-2.5l1.7-0.6c0.1,0.9,0.4,1.5,0.8,1.9
			c0.5,0.4,1.1,0.7,1.8,0.7c0.7,0,1.3-0.2,1.8-0.7c0.5-0.4,0.7-1,0.7-1.6c0-0.6-0.2-1.1-0.7-1.6C272,185.7,271.5,185.4,270.8,185.1z
			"/>
		<path class="st0" d="M289.8,180.9c1.4,1.2,2.1,2.7,2.1,4.4c0,1.7-0.7,3.2-2.1,4.4c-1.4,1.2-3,1.8-5,1.8c-1.9,0-3.6-0.6-5-1.8
			c-1.4-1.2-2.1-2.7-2.1-4.4c0-1.7,0.7-3.2,2.1-4.4c1.4-1.2,3-1.8,5-1.8C286.8,179,288.5,179.6,289.8,180.9z M284.9,180.6
			c-1.4,0-2.7,0.5-3.7,1.4c-1,0.9-1.5,2-1.5,3.3c0,1.3,0.5,2.4,1.5,3.3c1,0.9,2.3,1.4,3.7,1.4c1.4,0,2.7-0.5,3.7-1.4
			c1-0.9,1.5-2,1.5-3.3c0-1.3-0.5-2.4-1.5-3.3C287.6,181.1,286.3,180.6,284.9,180.6z"/>
		<path class="st0" d="M295.6,179.2h1.6l5.7,8.7v-8.7h1.8v12.2h-1.6l-5.7-8.8v8.8h-1.8V179.2z"/>
		<path class="st0" d="M313.6,179.2l5,12.2h-1.9l-1.8-4.3h-3.6l-1.8,4.3h-1.9l5-12.2H313.6z M314.3,185.5l-1.2-2.9l-1.2,2.9H314.3z"
			/>
		<path class="st0" d="M321.7,191.4v-12.2h1.8v10.6h4.9v1.6H321.7z"/>
		<path class="st0" d="M341.9,179.2c0.8,0,1.5,0.3,2,0.8c0.6,0.5,0.8,1.1,0.8,1.8c0,0.7-0.4,1.2-1.2,1.4c0.6,0.1,1.3,0.5,2,1.1
			c0.8,0.7,1.1,1.6,1.1,2.8c0,1.2-0.5,2.2-1.4,3.1c-0.9,0.8-1.8,1.2-2.7,1.2v0h-3.5v-12.2H341.9z M340.9,180.8v1.9h1.2
			c0.3,0,0.5-0.1,0.7-0.3c0.2-0.2,0.3-0.4,0.3-0.7c0-0.3-0.1-0.5-0.3-0.7c-0.2-0.2-0.5-0.3-0.8-0.3H340.9z M340.9,184.3v5.5h1.7v0
			c0.4,0,0.8-0.3,1.4-0.8c0.6-0.6,0.9-1.2,0.9-2c0-0.7-0.3-1.4-0.9-1.9c-0.6-0.5-1.3-0.8-2.2-0.8H340.9z"/>
		<path class="st0" d="M353.5,187.5h-1.6v3.9h-1.8v-12.2h3.9c1.1,0.1,2,0.5,2.8,1.2c0.9,0.8,1.4,1.8,1.4,2.9c0,1.2-0.5,2.1-1.4,2.9
			c-0.6,0.6-1.1,0.9-1.4,0.9l3,4.2h-2.2L353.5,187.5z M351.9,180.8v5.1h1.6c0.8,0,1.5-0.3,2-0.8c0.6-0.5,0.8-1.1,0.8-1.8
			c0-0.7-0.3-1.3-0.8-1.8c-0.6-0.5-1.2-0.7-2-0.7H351.9z"/>
		<path class="st0" d="M366.5,179.2l5,12.2h-1.9l-1.8-4.3h-3.6l-1.8,4.3h-1.9l5-12.2H366.5z M367.2,185.5l-1.2-2.9l-1.2,2.9H367.2z"
			/>
		<path class="st0" d="M374.6,179.2h1.6l5.7,8.7v-8.7h1.8v12.2h-1.6l-5.7-8.8v8.8h-1.8V179.2z"/>
		<path class="st0" d="M388.8,179.2c2.2,0,4,0.6,5.2,1.7c1.4,1.2,2,2.7,2,4.4c0,1.7-0.7,3.2-2,4.4c-1.2,1.1-3,1.7-5.2,1.7h-1.3
			v-12.2H388.8z M389.3,180.8v9c1.4,0,2.6-0.4,3.5-1.2c1-0.9,1.5-2,1.5-3.3c0-1.3-0.5-2.4-1.5-3.3
			C391.9,181.2,390.7,180.8,389.3,180.8z"/>
		<path class="st0" d="M401.5,179.2v12.2h-1.8v-12.2H401.5z"/>
		<path class="st0" d="M405.6,179.2h1.6l5.7,8.7v-8.7h1.8v12.2h-1.6l-5.7-8.8v8.8h-1.8V179.2z"/>
		<path class="st0" d="M430.2,189.7c-1.4,1.2-3,1.8-4.8,1.8c-1.9,0-3.6-0.6-5-1.8c-1.4-1.2-2.1-2.7-2.1-4.4c0-1.7,0.7-3.2,2.1-4.4
			c1.4-1.2,3-1.8,5-1.8c1.8,0,3.5,0.7,5.2,2l-1.3,1.1c-1.2-1-2.5-1.5-3.8-1.5c-1.4,0-2.7,0.5-3.7,1.4c-1,0.9-1.5,2-1.5,3.3
			c0,1.3,0.5,2.4,1.5,3.3c1,0.9,2.2,1.4,3.7,1.4c1.2,0,2.3-0.3,3.1-0.9v-3.7h1.8V189.7z"/>
	</g>
</g>
<g>
	<g>
		<path class="st0" d="M220.5,45.3c1-0.9,1.9-1.7,2.9-2.5c2-1.5,4.1-2.8,6.4-3.7c1.2-0.5,2.5-0.8,3.8-0.9c3.4-0.4,6.7-0.3,9.9-1.7
			c2.6-1.1,4.9-2.9,6.4-5.3c0.6-0.9,1-2,1.2-3.1c0.2-0.7,0.2-1.4,0.2-2.1c0-6.7-6.9-12.1-15.5-12.1h-25.4v55.9h0.9
			c0-0.2,0-0.4,0-0.7c0-6.2,2.3-12,4.9-17.5C217.4,49.3,218.6,47,220.5,45.3z M217.5,14.5h15.4c8.1,0,11.4,5.1,11.4,11.4
			c0,11.7-17.2,8.1-26.8,21.9V14.5z"/>
		<path class="st0" d="M242.7,40c-12.2,0-23,5.9-24.1,14.9c0.4,2.9,4,2.4,4.6,0c2.2-7.7,10.8-13.8,20.3-13.8
			c17.8,0,23.4,15.3,23.4,26.7c0,11.9-6.3,28.7-24.8,28.7c-5.4,0-12.9-2.3-17.6-6.5V69.8h13.7c11.5,0,20.8-7.3,20.8-16.2
			c0,0,0,0,0,0c0-2.7-1.4-5.1-3.6-6.6c-1.9-1.3-4-2.2-6.3-2.8c1.9,2.6,2.9,5.9,2.9,9.5c0,8.6-5.6,15.5-16.6,15.5h-10.9h-1.9h-5.1
			v27.8h0.9l6.2-5.6c4.7,4.1,10.8,6.6,18.1,6.6c20.9,0,31.2-14.2,31.2-28.9C273.9,54.2,263.6,40,242.7,40z"/>
		<path class="st0" d="M223,63.2c0-1.2-0.9-2.1-2.1-2.1c-1.2,0-2.1,0.9-2.1,2.1c0,1.2,0.9,2.1,2.1,2.1C222,65.3,223,64.4,223,63.2z"
			/>
	</g>
</g>
</svg>
